<svg xmlns="http://www.w3.org/2000/svg" viewBox="0 0 400 160">
  <!-- 背景矩形 - 设为透明 -->
  <rect width="400" height="160" fill="transparent"/>
  
  <!-- G字母图标 -->
  <g>
    <!-- 图标背景 -->
    <circle cx="60" cy="80" r="32" fill="#0284c7"/>
    
    <!-- G字母形状 -->
    <path d="M60,60 C48,60 40,69 40,80 C40,91 48,100 60,100 C70,100, 76,93 78,86 L68,86 C67,90 64,92 60,92 C52,92 48,87 48,80 C48,73 52,68 60,68 C64,68 66,70 67,74 L78,74 C76,65 70,60 60,60 Z" fill="white"/>
    
    <!-- 数据上升箭头 -->
    <path d="M60,85 L65,78 L70,82 L75,73" stroke="white" stroke-width="2" stroke-linecap="round" fill="none"/>
    <circle cx="75" cy="73" r="2" fill="#16a34a"/>
  </g>
  
  <!-- 文字部分 - Growthfy.ai -->
  <text x="110" y="89" font-family="Inter, Arial, sans-serif" font-weight="700" font-size="36" fill="#0f172a" letter-spacing="-0.5">
    growth<tspan fill="#16a34a">fy</tspan><tspan fill="#16a34a">.</tspan><tspan fill="#0284c7">ai</tspan>
  </text>
</svg>